<svg width="341" height="255" fill="none" xmlns="http://www.w3.org/2000/svg"><path d="m241.412 75.14-25.411-55.76c-4.607-10.107-16.482-14.635-26.649-10.16L18.58 84.373C8.319 88.89 3.66 100.869 8.177 111.13l42.795 97.241c4.468 10.154 16.26 14.84 26.48 10.523l29.67-12.534" stroke="#0A2D4D" stroke-width="2.036" stroke-miterlimit="10" stroke-linecap="round" stroke-linejoin="round"/><path d="M60.444 169.388c-2.258-5.131.07-11.12 5.202-13.378l144.312-63.511c5.202-2.289 11.269.138 13.456 5.382l6.248 14.977-18.398 4.501c-2.15.526-4.412.335-6.444-.545l-15.925-6.893a10.15 10.15 0 0 0-12.056 3.099l-10.025 12.942a10.147 10.147 0 0 1-5.612 3.644l-55.862 13.666a10.149 10.149 0 0 0-6.996 6.05l-2.782 6.87a10.151 10.151 0 0 0 .068 7.784l.739 1.736c2.175 5.113-.165 11.025-5.252 13.263l-12.871 5.665c-5.131 2.258-11.12-.071-13.379-5.201l-4.423-10.051Z" fill="#66CBFF"/><rect x="34.903" y="111.353" width="178.168" height="31.28" rx="10.15" transform="rotate(-23.754 34.903 111.353)" stroke="#0A2D4D" stroke-width="2.036" stroke-miterlimit="10" stroke-linecap="round" stroke-linejoin="round"/><circle cx="59.86" cy="118.038" r="6.753" transform="rotate(-23.754 59.86 118.038)" fill="#0A2D4D"/><circle cx="83.706" cy="107.072" r="6.753" transform="rotate(-23.754 83.706 107.072)" fill="#0A2D4D"/><circle cx="107.786" cy="96.632" r="6.753" transform="rotate(-23.754 107.786 96.632)" fill="#0A2D4D"/><circle cx="131.865" cy="86.192" r="6.753" transform="rotate(-23.754 131.865 86.192)" fill="#0A2D4D"/><path d="M88.074 162.348a20.3 20.3 0 0 1 13.963-20.439l6.47-2.114-10.123 8.199-2.81 8.576 11.305 51.319-15.873 6.458-2.932-51.999Z" fill="#0A2D4D"/><path d="m296.849 131.316 13.524 55.362c2.66 10.891-4.012 21.877-14.903 24.537l-156.703 38.281c-10.891 2.66-21.877-4.012-24.537-14.903l-17.05-69.795c-2.66-10.891 4.015-21.878 14.909-24.527 19.402-4.718 35.358-8.569 53.126-12.91 6.543-1.598 11.132-17.01 17.886-17.761 6.037-1.475 16.444 9.296 23.265 7.63l36.648-8.954" stroke="#0A2D4D" stroke-width="2.036" stroke-miterlimit="10" stroke-linecap="round" stroke-linejoin="round"/><rect x="237.614" y="185.633" width="50.23" height="19.193" rx="9.596" transform="rotate(-13.69 237.614 185.633)" fill="#66CBFF"/><path d="M239.045 130.737c2.322-9.205.219-7.857-5.629-18.627l11.134-2.739 8.611 14.166-4.093 27.064 10.245 15.605c-21.581-3.72-23.104-22.208-20.268-35.469Z" fill="#66CBFF"/><path d="m167.881 159.527 21.87-4.879" stroke="#0A2D4D" stroke-width="2.036" stroke-miterlimit="10" stroke-linecap="round" stroke-linejoin="round"/><rect x="114.774" y="165.402" width="43.243" height="11.25" rx="5.625" transform="rotate(-12.575 114.774 165.402)" fill="#66CBFF"/><path d="M199.427 152.283a5.626 5.626 0 0 1 4.266-6.715l37.973-8.47a5.624 5.624 0 1 1 2.449 10.98l-37.973 8.471a5.626 5.626 0 0 1-6.715-4.266Z" fill="#66CBFF"/><path d="M250.262 117.647c2.562 2.839 3.613 6.735 2.843 10.535l-3.496 17.24 41.076 8.33 3.483-17.175c.757-3.734 3.191-6.992 6.656-8.608 12.05-5.605 21.4-16.736 24.243-30.756 4.903-24.173-11.329-47.722-35.925-51.55-22.015-3.442-43.29 10.659-48.697 32.275-3.737 14.725.524 29.367 9.817 39.709Z" stroke="#0A2D4D" stroke-width="2.036" stroke-miterlimit="10" stroke-linecap="round" stroke-linejoin="round"/><path d="m301.405 10.678-3.954 19.498m36.265-7.476-16.625 14.208M268.384 9.451l9.776 19.562m-8.489 122.101 9.79-48.276" stroke="#66CBFF" stroke-width="2.036" stroke-miterlimit="10" stroke-linecap="round" stroke-linejoin="round"/><path d="m248.511 143.936 43.812 8.885c-2.24 11.047-13.011 18.186-24.058 15.946l-3.808-.773c-11.047-2.24-18.186-13.011-15.946-24.058Z" fill="#0A2D4D"/><path d="m200.601 178.337-2.523 8.886 8.886 2.524" stroke="#0A2D4D" stroke-width="2.036" stroke-miterlimit="10" stroke-linecap="round" stroke-linejoin="round"/><path d="M194.71 207.196c4.353 7.806 14.21 10.604 22.016 6.251 7.805-4.353 10.604-14.21 6.251-22.015-4.354-7.806-14.21-10.605-22.016-6.251" stroke="#0A2D4D" stroke-width="2.036" stroke-miterlimit="10" stroke-linecap="round" stroke-linejoin="round"/><path d="M243.377 106.807c-5.937-14.771-3.48-27.806-1.51-32.477l-2.763-3.6c-9.923 17.718-10.685 32.462-6.624 39.141l10.897-3.064Z" fill="#0A2D4D"/><path d="M133.377 219.716c1.028-.133 25.879-6.579 42.579-10.737" stroke="#0A2D4D" stroke-width="2.036" stroke-miterlimit="10" stroke-linecap="round" stroke-linejoin="round"/><circle cx="279.46" cy="100.949" r="6.957" fill="#66CBFF"/></svg>